<svg width="16" height="16" viewBox="0 0 16 16" fill="none" xmlns="http://www.w3.org/2000/svg">
<path d="M10 12.3333C8.32667 12.3333 6.88 11.3867 6.16 10H10V8.66667H5.72C5.68667 8.44667 5.66667 8.22667 5.66667 8C5.66667 7.77333 5.68667 7.55333 5.72 7.33333H10V6H6.16C6.88 4.61333 8.33333 3.66667 10 3.66667C11.0733 3.66667 12.06 4.06 12.82 4.71333L14 3.53333C12.94 2.58 11.5333 2 10 2C7.38667 2 5.17333 3.67333 4.34667 6H2V7.33333H4.04C4.01333 7.55333 4 7.77333 4 8C4 8.22667 4.01333 8.44667 4.04 8.66667H2V10H4.34667C5.17333 12.3267 7.38667 14 10 14C11.54 14 12.94 13.42 14 12.4667L12.8133 11.2867C12.06 11.94 11.08 12.3333 10 12.3333Z" fill="#071015"/>
</svg>
