<svg width="16" height="16" viewBox="0 0 16 16" fill="none" xmlns="http://www.w3.org/2000/svg">
<path d="M8.00002 4.33333C10.5267 4.33333 12.78 5.75333 13.88 8C12.78 10.2467 10.5334 11.6667 8.00002 11.6667C5.46669 11.6667 3.22002 10.2467 2.12002 8C3.22002 5.75333 5.47335 4.33333 8.00002 4.33333ZM8.00002 3C4.66669 3 1.82002 5.07333 0.666687 8C1.82002 10.9267 4.66669 13 8.00002 13C11.3334 13 14.18 10.9267 15.3334 8C14.18 5.07333 11.3334 3 8.00002 3ZM8.00002 6.33333C8.92002 6.33333 9.66669 7.08 9.66669 8C9.66669 8.92 8.92002 9.66667 8.00002 9.66667C7.08002 9.66667 6.33335 8.92 6.33335 8C6.33335 7.08 7.08002 6.33333 8.00002 6.33333ZM8.00002 5C6.34669 5 5.00002 6.34667 5.00002 8C5.00002 9.65333 6.34669 11 8.00002 11C9.65335 11 11 9.65333 11 8C11 6.34667 9.65335 5 8.00002 5Z" fill="#071015"/>
</svg>
