<svg width="16" height="16" viewBox="0 0 16 16" fill="none" xmlns="http://www.w3.org/2000/svg">
<path d="M7.99984 4.33333C10.5265 4.33333 12.7798 5.75333 13.8798 8C12.7798 10.2467 10.5332 11.6667 7.99984 11.6667C5.4665 11.6667 3.21984 10.2467 2.11984 8C3.21984 5.75333 5.47317 4.33333 7.99984 4.33333ZM7.99984 3C4.6665 3 1.81984 5.07333 0.666504 8C1.81984 10.9267 4.6665 13 7.99984 13C11.3332 13 14.1798 10.9267 15.3332 8C14.1798 5.07333 11.3332 3 7.99984 3ZM7.99984 6.33333C8.91984 6.33333 9.6665 7.08 9.6665 8C9.6665 8.92 8.91984 9.66667 7.99984 9.66667C7.07984 9.66667 6.33317 8.92 6.33317 8C6.33317 7.08 7.07984 6.33333 7.99984 6.33333ZM7.99984 5C6.3465 5 4.99984 6.34667 4.99984 8C4.99984 9.65333 6.3465 11 7.99984 11C9.65317 11 10.9998 9.65333 10.9998 8C10.9998 6.34667 9.65317 5 7.99984 5Z" fill="#74817F"/>
</svg>
