<svg width="16" height="16" viewBox="0 0 16 16" fill="none" xmlns="http://www.w3.org/2000/svg">
<path d="M7.99998 1.33331C5.41998 1.33331 3.33331 3.41998 3.33331 5.99998C3.33331 9.49998 7.99998 14.6666 7.99998 14.6666C7.99998 14.6666 12.6666 9.49998 12.6666 5.99998C12.6666 3.41998 10.58 1.33331 7.99998 1.33331ZM4.66665 5.99998C4.66665 4.15998 6.15998 2.66665 7.99998 2.66665C9.83998 2.66665 11.3333 4.15998 11.3333 5.99998C11.3333 7.91998 9.41331 10.7933 7.99998 12.5866C6.61331 10.8066 4.66665 7.89998 4.66665 5.99998Z" fill="#071015"/>
<path d="M7.99998 7.66665C8.92045 7.66665 9.66665 6.92045 9.66665 5.99998C9.66665 5.0795 8.92045 4.33331 7.99998 4.33331C7.07951 4.33331 6.33331 5.0795 6.33331 5.99998C6.33331 6.92045 7.07951 7.66665 7.99998 7.66665Z" fill="#071015"/>
</svg>
