<svg width="16" height="16" viewBox="0 0 16 16" fill="none" xmlns="http://www.w3.org/2000/svg">
<path d="M8.00002 14.6667C8.73335 14.6667 9.33335 14.0667 9.33335 13.3334H6.66669C6.66669 14.0667 7.26669 14.6667 8.00002 14.6667ZM12 10.6667V7.33335C12 5.28669 10.9134 3.57335 9.00002 3.12002V2.66669C9.00002 2.11335 8.55335 1.66669 8.00002 1.66669C7.44669 1.66669 7.00002 2.11335 7.00002 2.66669V3.12002C5.09335 3.57335 4.00002 5.28002 4.00002 7.33335V10.6667L2.66669 12V12.6667H13.3334V12L12 10.6667ZM10.6667 11.3334H5.33335V7.33335C5.33335 5.68002 6.34002 4.33335 8.00002 4.33335C9.66002 4.33335 10.6667 5.68002 10.6667 7.33335V11.3334Z" fill="#071015"/>
</svg>
