<svg width="16" height="16" viewBox="0 0 16 16" fill="none" xmlns="http://www.w3.org/2000/svg">
<path d="M8.00002 4.00002C8.73335 4.00002 9.33335 4.60002 9.33335 5.33335C9.33335 6.06669 8.73335 6.66669 8.00002 6.66669C7.26669 6.66669 6.66669 6.06669 6.66669 5.33335C6.66669 4.60002 7.26669 4.00002 8.00002 4.00002ZM8.00002 10.6667C9.80002 10.6667 11.8667 11.5267 12 12H4.00002C4.15335 11.52 6.20669 10.6667 8.00002 10.6667ZM8.00002 2.66669C6.52669 2.66669 5.33335 3.86002 5.33335 5.33335C5.33335 6.80669 6.52669 8.00002 8.00002 8.00002C9.47335 8.00002 10.6667 6.80669 10.6667 5.33335C10.6667 3.86002 9.47335 2.66669 8.00002 2.66669ZM8.00002 9.33335C6.22002 9.33335 2.66669 10.2267 2.66669 12V13.3334H13.3334V12C13.3334 10.2267 9.78002 9.33335 8.00002 9.33335Z" fill="#071015"/>
</svg>
