<svg width="24" height="24" viewBox="0 0 24 24" fill="none" xmlns="http://www.w3.org/2000/svg">
<path d="M11.998 6C13.098 6 13.998 6.9 13.998 8C13.998 9.1 13.098 10 11.998 10C10.898 10 9.99805 9.1 9.99805 8C9.99805 6.9 10.898 6 11.998 6ZM11.998 16C14.698 16 17.798 17.29 17.998 18H5.99805C6.22805 17.28 9.30805 16 11.998 16ZM11.998 4C9.78805 4 7.99805 5.79 7.99805 8C7.99805 10.21 9.78805 12 11.998 12C14.208 12 15.998 10.21 15.998 8C15.998 5.79 14.208 4 11.998 4ZM11.998 14C9.32805 14 3.99805 15.34 3.99805 18V20H19.998V18C19.998 15.34 14.668 14 11.998 14Z" fill="white"/>
</svg>
