<svg width="16" height="16" viewBox="0 0 16 16" fill="none" xmlns="http://www.w3.org/2000/svg">
<path d="M10.8266 5.16666C10.0466 4.38666 9.02665 3.99333 7.99998 3.99333V7.99333L5.17331 10.82C6.73331 12.38 9.26665 12.38 10.8333 10.82C12.3933 9.25999 12.3933 6.72666 10.8266 5.16666ZM7.99998 1.32666C4.31998 1.32666 1.33331 4.31333 1.33331 7.99333C1.33331 11.6733 4.31998 14.66 7.99998 14.66C11.68 14.66 14.6666 11.6733 14.6666 7.99333C14.6666 4.31333 11.68 1.32666 7.99998 1.32666ZM7.99998 13.3267C5.05331 13.3267 2.66665 10.94 2.66665 7.99333C2.66665 5.04666 5.05331 2.65999 7.99998 2.65999C10.9466 2.65999 13.3333 5.04666 13.3333 7.99333C13.3333 10.94 10.9466 13.3267 7.99998 13.3267Z" fill="#071015"/>
</svg>
