<svg width="64" height="64" viewBox="0 0 64 64" fill="none" xmlns="http://www.w3.org/2000/svg">
<rect width="63.9978" height="64" rx="31.9989" fill="#F4FF47"/>
<path d="M44.8589 42.2287C44.6583 42.2287 44.4752 42.2202 44.3074 42.2054V17.0943H38.3019V21.1883C37.4322 19.568 36.1482 18.2984 34.4501 17.3795C32.752 16.4605 30.8054 16 28.6125 16C26.2627 16 24.1264 16.6211 22.2016 17.8611C20.2768 19.1011 18.764 20.7763 17.6589 22.8846C16.5515 24.9929 16 27.2955 16 29.7924C16 32.3063 16.5493 34.6174 17.6458 36.7256C18.7422 38.8339 20.2572 40.5049 22.1886 41.7365C24.1221 42.968 26.2714 43.5849 28.6387 43.5849C30.8142 43.5849 32.752 43.1286 34.448 42.2181C36.146 41.3076 37.43 40.0422 38.2997 38.422C38.2997 39.6514 38.267 40.883 38.3128 42.1125C38.3237 42.4188 38.3433 42.723 38.3717 43.0293C38.5025 44.375 38.8033 45.8495 39.8975 46.779C40.1787 47.0177 40.4948 47.2142 40.8327 47.3663C41.77 47.7887 43.1106 48 44.8567 48H47.9978V42.2287H44.8589ZM36.9962 33.9055C36.2986 35.1455 35.346 36.1236 34.1362 36.8397C32.9264 37.558 31.5989 37.915 30.1537 37.915C28.7259 37.915 27.4114 37.5854 26.2104 36.9284C25.0093 36.2715 24.0523 35.3251 23.3373 34.0935C22.6223 32.8619 22.267 31.4275 22.267 29.7924C22.267 28.206 22.6202 26.799 23.3243 25.5654C24.0283 24.3338 24.9831 23.3768 26.1842 22.6924C27.3853 22.01 28.7084 21.6678 30.1537 21.6678C31.5989 21.6678 32.9221 22.0312 34.1232 22.7557C35.3243 23.4803 36.2768 24.4647 36.9831 25.7048C37.6872 26.9448 38.0403 28.3074 38.0403 29.7924C38.0403 31.2944 37.6916 32.6654 36.9962 33.9055Z" fill="#071015"/>
</svg>
